<?xml version="1.0" encoding="UTF-8" standalone="no"?>
<!-- Created with Inkscape (http://www.inkscape.org/) -->

<svg
   width="497.54514"
   height="471.32147"
   viewBox="0 0 131.64215 124.70381"
   version="1.1"
   id="svg1"
   xml:space="preserve"
   sodipodi:docname="favicon_light.svg"
   inkscape:export-filename="favicon_light.png"
   inkscape:export-xdpi="96"
   inkscape:export-ydpi="96"
   inkscape:version="1.4.2 (ebf0e940d0, 2025-05-08)"
   xmlns:inkscape="http://www.inkscape.org/namespaces/inkscape"
   xmlns:sodipodi="http://sodipodi.sourceforge.net/DTD/sodipodi-0.dtd"
   xmlns="http://www.w3.org/2000/svg"
   xmlns:svg="http://www.w3.org/2000/svg"><sodipodi:namedview
     id="namedview1"
     pagecolor="#505050"
     bordercolor="#eeeeee"
     borderopacity="1"
     inkscape:showpageshadow="0"
     inkscape:pageopacity="0"
     inkscape:pagecheckerboard="0"
     inkscape:deskcolor="#505050"
     inkscape:export-bgcolor="#ffffff00"
     inkscape:zoom="0.36434352"
     inkscape:cx="850.84539"
     inkscape:cy="37.052944"
     inkscape:window-width="1904"
     inkscape:window-height="1021"
     inkscape:window-x="0"
     inkscape:window-y="0"
     inkscape:window-maximized="1"
     inkscape:current-layer="svg1" /><defs
     id="defs1" /><g
     id="layer1"
     transform="translate(-1.9122627,-5.3814281)"><path
       id="Selection #1-5"
       style="fill:#ffffff;fill-opacity:1;stroke:none;stroke-width:28.0642;stroke-dasharray:none;stroke-opacity:1"
       d="m 63.161926,5.3818676 c -3.786891,0.053351 -6.776643,4.9113724 -6.914831,8.5768734 3.611768,4.442907 0.509073,8.605045 -1.595296,13.032085 -3.467741,9.386988 1.604319,18.664457 4.313099,27.557943 0.891327,3.354282 3.852225,7.792801 0.211704,10.462215 -3.770164,1.864944 -8.049247,2.430623 -12.051729,3.701082 -8.955671,2.190035 -17.817383,7.141332 -21.913485,15.767288 -1.091314,2.834941 -2.756144,4.781742 -6.059206,4.081043 -5.018075,2.410234 -7.777586,11.057001 -1.322677,13.702113 16.723039,8.77289 33.463651,17.53537 50.144423,26.39774 5.290975,4.09673 11.120838,-1.40287 11.43965,-6.85106 -2.900677,-4.73363 0.02245,-8.93932 2.262441,-13.50778 3.442149,-8.545118 0.0678,-17.47988 -2.923742,-25.608785 -0.954033,-3.747602 -3.836004,-7.57178 -2.14636,-11.480302 2.980995,-2.227562 7.045725,-2.288705 10.520203,-3.492243 9.023701,-2.440504 19.57808,-5.465398 24.00187,-14.595472 1.61667,-2.248935 2.06963,-6.784687 5.83009,-5.606725 5.31421,-1.000809 8.73541,-9.84555 3.35879,-13.1017 C 102.24777,24.866721 84.227421,15.205405 65.885403,6.1853151 64.951534,5.6118462 64.035733,5.3696209 63.161814,5.3818693 Z M 47.841317,6.7161105 A 3.3131928,3.3131928 0 0 0 46.565111,6.9250496 C 27.639412,13.997193 11.915969,27.693747 2.3088136,45.467304 a 3.3131928,3.3131928 0 0 0 1.3371326,4.484221 3.3131928,3.3131928 0 0 0 4.4957986,-1.33715 C 16.987741,32.248999 31.462208,19.652719 48.888431,13.140887 A 3.3131928,3.3131928 0 0 0 50.828856,8.8742072 3.3131928,3.3131928 0 0 0 47.841292,6.7162045 Z M 63.887051,9.1380377 C 82.191855,18.474987 100.36919,28.060415 118.55337,37.629955 120.779,39.165016 118.32151,44.12537 115.98352,43.854494 98.887678,35.261422 82.031161,26.12689 64.98639,17.401656 59.691937,17.061289 58.263799,9.6286595 63.887051,9.1380377 Z M 63.170634,20.569029 c 15.739668,8.143187 31.478998,16.345452 47.139456,24.640012 l 0.20037,0.429268 c -1.51837,5.053355 -4.6412,10.25175 -9.33967,13.104621 -7.647484,4.049599 -16.380604,5.295697 -24.497884,8.077973 -6.430664,2.543596 -4.15212,10.481138 -1.998467,15.262598 3.274659,8.371571 7.25828,18.130289 2.729426,26.829909 -1.601748,1.93963 -1.982187,6.75758 -5.119442,6.04762 -13.989687,-7.46826 -28.01333,-14.89464 -42.083841,-22.218076 -5.622469,-1.269424 -2.185047,-6.339455 0.01123,-9.473136 5.68707,-8.261722 16.092658,-10.855094 25.330321,-12.982775 4.686634,-0.839561 10.145542,-4.268375 8.936529,-9.78349 -1.902321,-8.492531 -5.987252,-16.42454 -7.315142,-25.06929 -0.271111,-5.133696 1.527876,-12.588721 6.007006,-14.865226 z m -0.104305,12.457783 c -1.320717,0.01915 -1.965415,1.651012 -0.849847,4.629249 1.66635,6.179305 4.033465,12.167512 5.838732,18.316853 1.842337,2.747903 -0.243742,11.70213 4.716248,7.564588 4.856023,-2.674404 10.617914,-3.051866 15.807914,-4.907699 3.135969,-1.582392 10.947172,-2.103286 10.514418,-6.143326 C 93.392074,50.705334 87.709266,48.792063 82.061873,46.798537 76.13373,44.116415 71.477125,39.311926 66.381592,35.338535 65.190375,33.755034 63.969973,33.013764 63.066307,33.026814 Z m 4.533516,35.954985 c -5.742304,0.873223 3.107567,5.006968 0,0 z m -2.218903,5.644433 c -5.812125,1.109349 3.405833,4.946321 0,0 z m -5.418213,2.868624 c -5.902552,1.065695 2.734926,5.393779 0,0 z m 3.58797,5.632832 c -5.63431,1.552194 3.600822,4.381348 0,0 z m -7.384742,1.183425 c -5.063368,0.210189 -10.026044,1.735804 -15.045073,2.537967 -3.059744,0.906344 -10.372027,0.424496 -8.324505,5.067226 10.33307,5.46995 20.679159,10.919576 31.003754,16.405406 2.062687,0.58912 4.820333,3.84876 6.465297,2.11738 -1.532091,-4.48473 -4.144208,-8.58271 -6.163663,-12.88416 -2.374926,-4.377978 -4.417218,-9.028264 -7.291903,-13.052389 z m 73.978013,0.951384 a 3.3131928,3.3131928 0 0 0 -2.81642,1.731627 C 118.48148,103.35949 104.0042,115.97029 86.577923,122.48212 a 3.3131928,3.3131928 0 0 0 -1.940426,4.25217 3.3131928,3.3131928 0 0 0 4.266681,1.95206 c 18.925632,-7.07215 34.649142,-20.7716 44.256292,-38.545167 a 3.3131928,3.3131928 0 0 0 -1.34876,-4.484217 3.3131928,3.3131928 0 0 0 -1.66781,-0.394475 z M 21.620597,92.229574 c 17.886811,9.234646 35.626118,18.764766 53.395904,28.227976 2.127053,1.63832 -1.138009,7.38267 -3.788128,5.65313 -16.156364,-8.53004 -32.387214,-16.93048 -48.586742,-25.38255 -5.347607,-0.37988 -6.542698,-8.263259 -1.021037,-8.498556 z" /></g></svg>
