<?xml version="1.0" encoding="UTF-8" standalone="no"?>
<!-- Created with Inkscape (http://www.inkscape.org/) -->

<svg
   width="268.06616mm"
   height="24.327097mm"
   viewBox="0 0 268.06616 24.327097"
   version="1.1"
   id="svg1"
   xml:space="preserve"
   xmlns="http://www.w3.org/2000/svg"
   xmlns:svg="http://www.w3.org/2000/svg"><defs
     id="defs1" /><g
     id="g3"
     transform="translate(-8.6461369,-48.336426)"><g
       id="g2"><path
         style="font-size:36.2689px;font-family:BatmanForeverAlternate;-inkscape-font-specification:BatmanForeverAlternate;fill:#000000;stroke-width:0.149039"
         d="m 36.174232,64.838781 -4.860033,4.860033 H 13.506168 L 8.6461353,64.838781 V 53.196464 l 4.8600327,-4.860033 h 17.808031 l 4.860033,4.860033 z m -6.455865,0.108807 V 53.087657 H 15.102 v 11.859931 z"
         id="path6" /><path
         style="font-size:28.6156px;font-family:BatmanForeverAlternate;-inkscape-font-specification:BatmanForeverAlternate;fill:#000000;stroke-width:0.149039"
         d="m 108.81229,72.663525 -5.09358,-2.918791 v -4.120646 l -1.54524,-1.516627 h -9.729305 v 5.637273 H 87.350588 V 52.890145 H 104.9778 l 3.83449,5.179424 -2.91879,3.920337 2.91879,2.918792 z m -5.23666,-14.250569 -1.34493,-1.774167 h -9.786535 v 3.634181 h 9.786535 z"
         id="path47" /><path
         style="font-size:28.6156px;font-family:BatmanForeverAlternate;-inkscape-font-specification:BatmanForeverAlternate;fill:#000000;stroke-width:0.149039"
         d="M 62.683956,52.890145 53.526963,69.744734 H 48.776774 L 39.619781,52.890145 h 5.20804 l 6.324048,11.532087 6.324047,-11.532087 z"
         id="path7" /><path
         id="path10"
         style="fill:#000000;stroke:none;stroke-width:0.00326387"
         d="m 74.621285,52.966793 c -5.023301,-0.0041 -9.80767,5.52e-4 -9.80767,0.01344 0,0.01632 0.819233,0.845071 1.817977,1.843815 l 1.821077,1.821594 h 5.506124 0.662492 0.662492 5.506124 l 1.821594,-1.821594 c 0.998744,-0.998744 1.817977,-1.827495 1.817977,-1.843815 0,-0.01288 -4.784886,-0.0175 -9.808187,-0.01344 z m -7.431588,6.583577 1.677417,1.664498 1.674317,1.661397 4.079854,0.0031 4.079854,-0.0031 1.674317,-1.661397 1.677933,-1.664498 h -6.139676 -1.292428 -1.292428 z m 1.883089,6.168616 -1.843815,1.844332 -1.844332,1.843815 h 7.043498 2.193148 2.193665 7.043497 l -1.844332,-1.843815 -1.844331,-1.844332 h -5.548499 z" /></g><g
       id="g1"
       transform="translate(-12.700002)"><path
         style="font-size:36.2689px;font-family:BatmanForeverAlternate;-inkscape-font-specification:BatmanForeverAlternate;fill:#000000;stroke-width:0.149039"
         d="m 152.18075,48.336431 -4.75122,4.787495 h -14.36249 v 11.823662 h 18.35207 l -4.7875,4.787495 h -15.1604 L 126.61118,64.87505 V 53.196464 l 4.86003,-4.860033 z"
         id="path8" /><path
         id="path38"
         style="font-size:28.6156px;font-family:BatmanForeverAlternate;-inkscape-font-specification:BatmanForeverAlternate;fill:#000000;stroke-width:0.149039"
         d="m 267.72164,52.890312 v 16.883207 h 16.91163 l 4.77904,-8.441862 -4.77904,-8.441345 z m 5.09375,3.77703 h 8.44134 l 2.63292,4.664315 -2.63292,4.664315 h -8.44134 z" /><path
         style="font-size:28.6156px;font-family:BatmanForeverAlternate;-inkscape-font-specification:BatmanForeverAlternate;fill:#000000;stroke-width:0.149039"
         d="m 242.65429,52.890145 -6.43851,6.123739 5.89482,5.894814 v 4.864652 l -5.09358,2.890175 v -7.010822 l -3.77726,-3.777259 -5.40835,5.122192 v 2.775714 l -5.09357,-0.02862 V 52.890145 h 5.09357 v 8.269909 l 8.78499,-8.269909 z"
         id="path35" /><path
         style="font-size:28.6156px;font-family:BatmanForeverAlternate;-inkscape-font-specification:BatmanForeverAlternate;fill:#000000;stroke-width:0.149039"
         d="m 220.76335,52.890145 -3.74864,3.77726 h -11.33178 v 9.328685 h 14.47949 l -3.77726,3.77726 h -11.96132 l -3.83449,-3.834491 v -9.214223 l 3.83449,-3.834491 z"
         id="path34" /><path
         style="font-size:28.6156px;font-family:BatmanForeverAlternate;-inkscape-font-specification:BatmanForeverAlternate;fill:#000000;stroke-width:0.149039"
         d="m 173.20462,65.99609 -3.77726,3.77726 H 153.63155 V 52.890145 l 5.09357,-2.947407 V 65.99609 Z"
         id="path9" /><path
         id="Selection #1-5"
         style="fill:#000000;fill-opacity:1;stroke:none;stroke-width:5;stroke-dasharray:none;stroke-opacity:1"
         d="m 184.94323,49.3913 c -0.67468,0.0095 -1.20734,0.87502 -1.23196,1.528073 0.64348,0.791557 0.0907,1.533092 -0.28422,2.321822 -0.61782,1.672404 0.28583,3.325296 0.76843,4.909777 0.1588,0.597606 0.68632,1.388381 0.0377,1.863969 -0.6717,0.332261 -1.43407,0.433045 -2.14716,0.659392 -1.59556,0.390183 -3.17438,1.272314 -3.90415,2.809131 -0.19443,0.505079 -0.49104,0.851925 -1.07952,0.727087 -0.89403,0.429411 -1.38567,1.969937 -0.23565,2.441195 2.97941,1.562995 5.96195,3.124135 8.93383,4.703072 0.94265,0.729882 1.98131,-0.249936 2.03811,-1.220598 -0.51679,-0.843351 0.004,-1.592646 0.40308,-2.406571 0.61326,-1.522416 0.0121,-3.11425 -0.5209,-4.562512 -0.16997,-0.66768 -0.68343,-1.349003 -0.3824,-2.045353 0.5311,-0.396867 1.25528,-0.407762 1.8743,-0.622185 1.60768,-0.434807 3.48807,-0.973726 4.27622,-2.600358 0.28803,-0.400675 0.36873,-1.208773 1.0387,-0.998905 0.94679,-0.178307 1.55632,-1.754103 0.59841,-2.334225 -3.21921,-1.701351 -6.42975,-3.42263 -9.6976,-5.029667 -0.16638,-0.10217 -0.32954,-0.145325 -0.48524,-0.143144 z m -2.72955,0.237712 a 0.590285,0.590285 0 0 0 -0.22737,0.03721 c -3.37184,1.259987 -6.17316,3.700192 -7.88479,6.866764 a 0.590285,0.590285 0 0 0 0.23823,0.798918 0.590285,0.590285 0 0 0 0.80098,-0.238228 c 1.57602,-2.915689 4.15482,-5.159867 7.25951,-6.320028 a 0.590285,0.590285 0 0 0 0.34571,-0.76016 0.590285,0.590285 0 0 0 -0.53227,-0.384473 z m 2.85874,0.431498 c 3.26122,1.663489 6.49973,3.371248 9.73946,5.076176 0.39652,0.273488 -0.0413,1.157236 -0.45785,1.108976 -3.04583,-1.530959 -6.04902,-3.158385 -9.08575,-4.71289 -0.94327,-0.06064 -1.19771,-1.384852 -0.19586,-1.472262 z m -0.12764,2.036568 c 2.80421,1.450806 5.60836,2.912138 8.39846,4.389913 l 0.0357,0.07648 c -0.27052,0.900313 -0.82689,1.826469 -1.66398,2.334742 -1.36249,0.721485 -2.9184,0.943492 -4.36459,1.439188 -1.1457,0.453172 -0.73975,1.86734 -0.35605,2.719214 0.58342,1.491496 1.29315,3.230127 0.48628,4.78007 -0.28537,0.345568 -0.35315,1.203943 -0.91209,1.077454 -2.49243,-1.330559 -4.99091,-2.653658 -7.49774,-3.958415 -1.00171,-0.226161 -0.38929,-1.129449 0.002,-1.687752 1.01322,-1.471925 2.8671,-1.933965 4.5129,-2.313037 0.83498,-0.149579 1.80755,-0.760462 1.59215,-1.743046 -0.33892,-1.513046 -1.0667,-2.926228 -1.30328,-4.466394 -0.0483,-0.914629 0.27221,-2.242831 1.07022,-2.648418 z m -0.0186,2.219503 c -0.2353,0.0034 -0.35016,0.294151 -0.15141,0.824756 0.29688,1.100917 0.71861,2.167788 1.04024,3.263367 0.32824,0.489571 -0.0434,2.084874 0.84026,1.347721 0.86516,-0.476477 1.89171,-0.543726 2.81637,-0.874365 0.55871,-0.281921 1.95037,-0.374724 1.87327,-1.094507 -1.01583,-0.317333 -2.02829,-0.658204 -3.03444,-1.013375 -1.05617,-0.477852 -1.8858,-1.333829 -2.79363,-2.041736 -0.21223,-0.282121 -0.42966,-0.414186 -0.59066,-0.411861 z m 0.8077,6.405811 c -1.02306,0.155578 0.55365,0.892051 0,0 z m -0.39532,1.005623 c -1.0355,0.197645 0.60679,0.881246 0,0 z m -0.96532,0.51108 c -1.05161,0.189866 0.48726,0.960966 0,0 z m 0.63924,1.003556 c -1.00382,0.276544 0.64153,0.78059 0,0 z m -1.31568,0.21084 c -0.9021,0.03744 -1.78626,0.309256 -2.68046,0.452169 -0.54513,0.161478 -1.8479,0.07563 -1.48311,0.902787 1.84096,0.974537 3.68424,1.945453 5.52369,2.922819 0.36749,0.10496 0.8588,0.685702 1.15187,0.377238 -0.27296,-0.799008 -0.73834,-1.529112 -1.09813,-2.295467 -0.42312,-0.779989 -0.78698,-1.608493 -1.29914,-2.325439 z m 13.18007,0.169499 a 0.590285,0.590285 0 0 0 -0.50178,0.308508 c -1.57602,2.915689 -4.15532,5.162452 -7.26002,6.322612 a 0.590285,0.590285 0 0 0 -0.34571,0.757576 0.590285,0.590285 0 0 0 0.76016,0.347783 c 3.37183,-1.259987 6.17316,-3.700709 7.88479,-6.867282 a 0.590285,0.590285 0 0 0 -0.2403,-0.798917 0.590285,0.590285 0 0 0 -0.29714,-0.07028 z m -19.33474,1.241268 c 3.18675,1.645263 6.34722,3.343166 9.51312,5.02915 0.37896,0.291888 -0.20275,1.315312 -0.6749,1.007174 -2.87845,-1.51973 -5.77017,-3.016369 -8.65631,-4.522205 -0.95274,-0.06768 -1.16566,-1.472199 -0.18191,-1.514119 z" /><path
         id="path10-5"
         style="fill:#000000;stroke:none;stroke-width:0.00326387"
         d="m 254.80667,53.148177 c -5.0233,-0.0041 -9.80767,5.52e-4 -9.80767,0.01344 0,0.01632 0.81923,0.845071 1.81798,1.843815 l 1.82107,1.821595 h 5.50613 0.66249 0.66249 5.50612 l 1.8216,-1.821595 c 0.99874,-0.998744 1.81798,-1.827495 1.81798,-1.843815 0,-0.01288 -4.78489,-0.0175 -9.80819,-0.01344 z m -7.43159,6.583578 1.67742,1.664498 1.67432,1.661397 4.07985,0.0031 4.07985,-0.0031 1.67432,-1.661397 1.67793,-1.664498 h -6.13967 -1.29243 -1.29243 z m 1.88309,6.168615 -1.84382,1.844332 -1.84433,1.843815 h 7.0435 2.19315 2.19366 7.0435 l -1.84433,-1.843815 -1.84433,-1.844332 h -5.5485 z" /></g></g></svg>
